PathFileType	3	(X/Y/Z)	running_1__fused_aligned.trc
DataRate	CameraRate	NumFrames	NumMarkers	Units	OrigDataRate	OrigDataStartFrame	OrigNumFrames
100.0	100.0	10	19	mm	100.0	4232	6379
Frame#	Time	pelvis			neck			head			hip_left			hip_right			knee_left			knee_right			ankle_left			ankle_right			heel_left			heel_right			toe_left			toe_right			shoulder_left			shoulder_right			elbow_left			elbow_right			wrist_left			wrist_right			
		X1	Y1	Z1	X2	Y2	Z2	X3	Y3	Z3	X4	Y4	Z4	X5	Y5	Z5	X6	Y6	Z6	X7	Y7	Z7	X8	Y8	Z8	X9	Y9	Z9	X10	Y10	Z10	X11	Y11	Z11	X12	Y12	Z12	X13	Y13	Z13	X14	Y14	Z14	X15	Y15	Z15	X16	Y16	Z16	X17	Y17	Z17	X18	Y18	Z18	X19	Y19	Z19	
4232	42.31000	38.231696	941.913510	78.394214	7.894246	1481.812054	226.229308	2.763184	1570.389266	372.577747	112.562814	945.504651	71.676374	-36.099366	938.322383	85.112016	144.145454	519.861982	69.401458	-34.437557	540.961082	267.454042	114.126120	251.826537	-222.410803	-56.918678	177.719764	139.538117	103.819774	240.662555	-274.761026	-61.955441	137.425606	100.155880	121.636349	92.065279	-147.249502	-40.640520	104.631922	302.067084	182.805095	1458.560404	194.422956	-155.452924	1438.882651	165.063636	290.099768	1209.275384	143.767827	-245.599120	1226.449491	6.903690	157.831085	1166.866594	312.654687	-213.008543	1037.002397	167.862936
4233	42.32000	35.617785	942.718139	79.992472	5.509895	1482.806017	227.714621	0.704098	1571.298823	374.085321	109.964373	946.209909	73.219554	-38.728752	939.226390	86.765317	142.326075	521.021950	72.510801	-36.378401	541.370310	266.165514	111.624500	256.158090	-224.131569	-57.663602	173.949106	142.173882	101.081801	245.939155	-276.942823	-62.658562	132.372509	102.983949	119.893303	93.578225	-151.527073	-41.483466	103.247823	308.744680	179.932201	1459.917359	195.019496	-157.885165	1439.793331	167.203734	287.471583	1211.343602	143.014563	-248.089495	1226.865598	10.637616	157.131735	1168.059669	312.704333	-215.076118	1037.278250	170.850344
4234	42.33000	33.003873	943.522769	81.590730	3.125544	1483.799981	229.199935	-1.354988	1572.208379	375.592895	107.365931	946.915168	74.762734	-41.358137	940.130398	88.418618	140.506697	522.181918	75.620145	-38.319246	541.779538	264.876987	109.122880	260.489643	-225.852336	-58.408527	170.178448	144.809647	98.343828	251.215755	-279.124620	-63.361682	127.319411	105.812018	118.150257	95.091172	-155.804644	-42.326411	101.863724	315.422276	177.059307	1461.274314	195.616036	-160.317406	1440.704010	169.343832	284.843397	1213.411819	142.261300	-250.579870	1227.281705	14.371541	156.432386	1169.252744	312.753979	-217.143693	1037.554103	173.837751
4235	42.34000	30.389961	944.327399	83.188989	0.741193	1484.793944	230.685248	-3.414074	1573.117936	377.100469	104.767490	947.620426	76.305914	-43.987522	941.034406	90.071918	138.687319	523.341886	78.729488	-40.260090	542.188766	263.588460	106.621260	264.821196	-227.573102	-59.153451	166.407790	147.445412	95.605855	256.492356	-281.306417	-64.064803	122.266314	108.640087	116.407210	96.604118	-160.082215	-43.169356	100.479625	322.099872	174.186413	1462.631270	196.212576	-162.749648	1441.614690	171.483930	282.215212	1215.480037	141.508036	-253.070245	1227.697811	18.105467	155.733036	1170.445819	312.803625	-219.211269	1037.829956	176.825158
4236	42.35000	27.776049	945.132028	84.787247	-1.643157	1485.787907	232.170561	-5.473160	1574.027492	378.608043	102.169049	948.325685	77.849094	-46.616907	941.938414	91.725219	136.867940	524.501854	81.838832	-42.200935	542.597995	262.299933	104.119640	269.152749	-229.293869	-59.898376	162.637133	150.081177	92.867882	261.768956	-283.488213	-64.767924	117.213217	111.468157	114.664164	98.117064	-164.359786	-44.012301	99.095526	328.777469	171.313519	1463.988225	196.809116	-165.181889	1442.525369	173.624028	279.587027	1217.548254	140.754773	-255.560620	1228.113918	21.839393	155.033687	1171.638894	312.853271	-221.278844	1038.105809	179.812565
4237	42.36000	25.622537	946.550547	86.774729	-3.319704	1487.210211	233.867184	-6.389195	1575.510126	380.097351	100.002021	949.663442	79.849427	-48.756919	943.437689	93.699868	135.406697	526.470646	87.924469	-45.038153	542.660746	256.619278	103.349588	270.728838	-219.562971	-62.476931	161.848020	143.401959	92.234004	263.211985	-273.405117	-67.196915	116.531625	104.657885	113.458908	100.412509	-154.680327	-46.659341	97.502904	321.374311	168.521232	1465.977202	196.366413	-166.884633	1443.545862	177.129535	276.315447	1222.405997	134.758293	-257.223100	1227.783091	29.113675	158.864529	1172.412477	306.626100	-219.860464	1042.437709	186.998664
4238	42.37000	23.469026	947.969066	88.762211	-4.996250	1488.632514	235.563807	-7.305229	1576.992760	381.586660	97.834993	951.001199	81.849759	-50.896930	944.936963	95.674517	133.945454	528.439438	94.010106	-47.875372	542.723498	250.938623	102.579536	272.304927	-209.832073	-65.055485	161.058907	136.722741	91.600125	264.655014	-263.322021	-69.625906	115.850033	97.847612	112.253652	102.707953	-145.000869	-49.306382	95.910281	313.971153	165.728946	1467.966179	195.923711	-168.587377	1444.566354	180.635042	273.043868	1227.263740	128.761813	-258.885580	1227.452265	36.387957	162.695372	1173.186061	300.398928	-218.442084	1046.769610	194.184763
4239	42.38000	21.315514	949.387585	90.749693	-6.672796	1490.054817	237.260430	-8.221264	1578.475395	383.075969	95.667965	952.338956	83.850092	-53.036941	946.436237	97.649165	132.484211	530.408231	100.095743	-50.712590	542.786249	245.257967	101.809484	273.881016	-200.101176	-67.634040	160.269794	130.043524	90.966247	266.098044	-253.238925	-72.054897	115.168440	91.037340	111.048396	105.003398	-135.321410	-51.953422	94.317659	306.567995	162.936660	1469.955156	195.481008	-170.290122	1445.586847	184.140549	269.772288	1232.121483	122.765334	-260.548060	1227.121438	43.662239	166.526215	1173.959644	294.171757	-217.023704	1051.101510	201.370861
4240	42.39000	19.162002	950.806104	92.737176	-8.349342	1491.477120	238.957053	-9.137298	1579.958029	384.565278	93.500937	953.676714	85.850425	-55.176953	947.935512	99.623814	131.022968	532.377023	106.181380	-53.549809	542.849001	239.577312	101.039432	275.457105	-190.370278	-70.212594	159.480681	123.364306	90.332368	267.541073	-243.155829	-74.483888	114.486848	84.227068	109.843141	107.298842	-125.641952	-54.600462	92.725037	299.164838	160.144374	1471.944133	195.038306	-171.992866	1446.607340	187.646056	266.500709	1236.979225	116.768854	-262.210539	1226.790612	50.936521	170.357057	1174.733227	287.944586	-215.605324	1055.433411	208.556960
4241	42.40000	17.008491	952.224623	94.724658	-10.025889	1492.899424	240.653676	-10.053333	1581.440663	386.054587	91.333910	955.014471	87.850757	-57.316964	949.434786	101.598463	129.561725	534.345816	112.267017	-56.387027	542.911752	233.896657	100.269380	277.033194	-180.639380	-72.791149	158.691568	116.685089	89.698490	268.984102	-233.072733	-76.912878	113.805256	77.416796	108.637885	109.594287	-115.962493	-57.247502	91.132415	291.761680	157.352088	1473.933110	194.595603	-173.695610	1447.627833	191.151563	263.229129	1241.836968	110.772374	-263.873019	1226.459785	58.210803	174.187900	1175.506810	281.717415	-214.186944	1059.765312	215.743059
